<svg width="232" height="232" viewBox="0 0 232 232" fill="none" xmlns="http://www.w3.org/2000/svg">
<path d="M83 73L104 109M104 109L114.25 91.7397M104 109H149M149 74.4795H124.5L114.25 91.7397M114.25 91.7397H149" stroke="black" stroke-width="5"/>
<path d="M64.9737 171.14V190.489H62.1609V171.14H64.9737ZM61.7347 164.833C61.7347 164.35 61.9194 163.923 62.2888 163.554C62.6581 163.185 63.0985 163 63.6099 163C64.1213 163 64.5617 163.185 64.9311 163.554C65.3004 163.923 65.4851 164.35 65.4851 164.833C65.4851 165.372 65.3004 165.827 64.9311 166.196C64.5617 166.537 64.1213 166.708 63.6099 166.708C63.0701 166.708 62.6155 166.537 62.2462 166.196C61.9052 165.827 61.7347 165.372 61.7347 164.833Z" fill="black"/>
<path d="M85.7893 190.489L85.3205 188.443C83.9567 190.148 81.9821 191 79.3966 191C76.5838 191 74.3535 189.949 72.7056 187.846C71.285 186.028 70.5747 183.769 70.5747 181.07C70.5747 177.661 71.5691 174.99 73.558 173.058C75.2058 171.438 77.2373 170.629 79.6523 170.629C81.9253 170.629 83.7436 171.382 85.1074 172.887V164.62L87.9202 163.043V190.489H85.7893ZM85.1074 185.332V176.084C84.738 175.203 84.0704 174.464 83.1044 173.868C82.1384 173.243 81.1155 172.93 80.0359 172.93C78.1607 172.93 76.6264 173.669 75.4331 175.146C74.2398 176.595 73.6432 178.47 73.6432 180.772C73.6432 183.386 74.2967 185.417 75.6036 186.866C76.7401 188.059 78.1607 188.656 79.8654 188.656C81.0019 188.656 82.0389 188.358 82.9765 187.761C83.9425 187.136 84.6528 186.326 85.1074 185.332Z" fill="black"/>
<path d="M110.303 181.795H96.4949C96.6086 183.869 97.3189 185.531 98.6258 186.781C99.9612 188.031 101.68 188.656 103.783 188.656C105.544 188.656 107.263 188.13 108.939 187.079L109.92 188.784C108.044 190.261 105.786 191 103.143 191C100.075 191 97.6314 189.991 95.813 187.974C94.1367 186.156 93.2986 183.798 93.2986 180.9C93.2986 177.888 94.1936 175.373 95.9835 173.356C97.603 171.538 99.606 170.629 101.993 170.629C104.862 170.629 107.05 171.794 108.556 174.123C109.721 175.942 110.303 178.186 110.303 180.857V181.795ZM96.4523 179.493H107.362C107.277 177.419 106.766 175.8 105.828 174.635C104.919 173.47 103.655 172.887 102.035 172.887C100.501 172.887 99.2083 173.498 98.157 174.72C97.1342 175.942 96.566 177.533 96.4523 179.493Z" fill="black"/>
<path d="M133.023 180.857C133.023 183.925 132.057 186.44 130.125 188.4C128.392 190.133 126.261 191 123.733 191C120.806 191 118.448 189.892 116.658 187.676C115.152 185.801 114.399 183.528 114.399 180.857C114.399 177.732 115.337 175.203 117.212 173.271C118.917 171.509 121.09 170.629 123.733 170.629C126.716 170.629 129.088 171.751 130.85 173.995C132.299 175.871 133.023 178.158 133.023 180.857ZM117.468 180.857C117.468 183.329 118.107 185.289 119.386 186.738C120.522 188.017 121.957 188.656 123.69 188.656C125.565 188.656 127.071 187.946 128.208 186.525C129.372 185.076 129.955 183.187 129.955 180.857C129.955 178.414 129.33 176.453 128.08 174.976C126.943 173.612 125.494 172.93 123.733 172.93C121.858 172.93 120.338 173.669 119.173 175.146C118.036 176.595 117.468 178.499 117.468 180.857Z" fill="black"/>
<path d="M154.128 181.795H140.32C140.434 183.869 141.144 185.531 142.451 186.781C143.786 188.031 145.505 188.656 147.608 188.656C149.369 188.656 151.088 188.13 152.764 187.079L153.744 188.784C151.869 190.261 149.611 191 146.968 191C143.9 191 141.456 189.991 139.638 187.974C137.962 186.156 137.124 183.798 137.124 180.9C137.124 177.888 138.019 175.373 139.808 173.356C141.428 171.538 143.431 170.629 145.818 170.629C148.687 170.629 150.875 171.794 152.381 174.123C153.546 175.942 154.128 178.186 154.128 180.857V181.795ZM140.277 179.493H151.187C151.102 177.419 150.591 175.8 149.653 174.635C148.744 173.47 147.48 172.887 145.86 172.887C144.326 172.887 143.033 173.498 141.982 174.72C140.959 175.942 140.391 177.533 140.277 179.493Z" fill="black"/>
<path d="M175.783 190.489H172.97V179.152C172.97 175.118 171.209 173.1 167.685 173.1C166.663 173.1 165.654 173.342 164.66 173.825C163.665 174.308 162.898 174.919 162.358 175.658V190.489H159.503V171.14H161.889L162.145 173.186H162.273C163.949 171.481 166.052 170.629 168.58 170.629C173.382 170.629 175.783 173.399 175.783 178.939V190.489Z" fill="black"/>
<path d="M196.163 190.489L195.694 188.443C194.33 190.148 192.356 191 189.77 191C186.957 191 184.727 189.949 183.079 187.846C181.659 186.028 180.948 183.769 180.948 181.07C180.948 177.661 181.943 174.99 183.931 173.058C185.579 171.438 187.611 170.629 190.026 170.629C192.299 170.629 194.117 171.382 195.481 172.887V164.62L198.294 163.043V190.489H196.163ZM195.481 185.332V176.084C195.112 175.203 194.444 174.464 193.478 173.868C192.512 173.243 191.489 172.93 190.409 172.93C188.534 172.93 187 173.669 185.807 175.146C184.613 176.595 184.017 178.47 184.017 180.772C184.017 183.386 184.67 185.417 185.977 186.866C187.114 188.059 188.534 188.656 190.239 188.656C191.375 188.656 192.412 188.358 193.35 187.761C194.316 187.136 195.026 186.326 195.481 185.332Z" fill="black"/>
<path fill-rule="evenodd" clip-rule="evenodd" d="M53.6763 172.075H40.1141V169.653H55.6642L56.7295 171.426L46.8277 190.489H44.7161L34 171.461L36.0925 170.267L45.7207 187.362L53.6763 172.075Z" fill="black"/>
<rect x="68.5" y="43.5" width="95" height="95" stroke="black" stroke-width="5"/>
</svg>
