<svg width="64" height="11" viewBox="0 0 64 11" fill="none" xmlns="http://www.w3.org/2000/svg">
<path d="M12.0654 3.19783V10.799H10.9697V3.19783H12.0654ZM10.8037 0.719931C10.8037 0.530182 10.8757 0.362756 11.0195 0.217654C11.1634 0.0725512 11.335 0 11.5342 0C11.7334 0 11.905 0.0725512 12.0488 0.217654C12.1927 0.362756 12.2647 0.530182 12.2647 0.719931C12.2647 0.932004 12.1927 1.11059 12.0488 1.25569C11.905 1.38963 11.7334 1.45661 11.5342 1.45661C11.3239 1.45661 11.1468 1.38963 11.0029 1.25569C10.8701 1.11059 10.8037 0.932004 10.8037 0.719931Z" fill="white"/>
<path d="M20.1748 10.7988L19.9922 9.99518C19.461 10.6649 18.6918 10.9997 17.6846 10.9997C16.5889 10.9997 15.7201 10.5868 15.0781 9.76079C14.5247 9.04644 14.248 8.15908 14.248 7.09871C14.248 5.75931 14.6354 4.71011 15.4102 3.95111C16.0521 3.31489 16.8434 2.99678 17.7842 2.99678C18.6696 2.99678 19.378 3.29257 19.9092 3.88414V0.636077L21.0049 0.0166016V10.7988H20.1748ZM19.9092 8.77297V5.13983C19.7653 4.79382 19.5052 4.50361 19.1289 4.26922C18.7526 4.02366 18.3542 3.90088 17.9336 3.90088C17.2031 3.90088 16.6055 4.19109 16.1406 4.7715C15.6758 5.34074 15.4434 6.07742 15.4434 6.98152C15.4434 8.0084 15.6979 8.80646 16.207 9.37571C16.6498 9.8445 17.2031 10.0789 17.8672 10.0789C18.3099 10.0789 18.7139 9.9617 19.0791 9.7273C19.4554 9.48174 19.7321 9.16363 19.9092 8.77297Z" fill="white"/>
<path d="M29.7237 7.38363H24.3447C24.389 8.19843 24.6657 8.85139 25.1748 9.34251C25.695 9.83363 26.3646 10.0792 27.1836 10.0792C27.8698 10.0792 28.5394 9.87269 29.1924 9.45971L29.5743 10.1294C28.8438 10.7098 27.9639 11 26.9346 11C25.7393 11 24.7874 10.6038 24.0791 9.8113C23.4261 9.09695 23.0996 8.17053 23.0996 7.03203C23.0996 5.84889 23.4482 4.86108 24.1455 4.0686C24.7764 3.35425 25.5567 2.99707 26.4863 2.99707C27.6042 2.99707 28.4564 3.4547 29.043 4.36996C29.4968 5.08431 29.7237 5.96609 29.7237 7.01529V7.38363ZM24.3281 6.47953H28.5782C28.5449 5.66472 28.3457 5.0285 27.9805 4.57087C27.6263 4.11324 27.1338 3.88443 26.5029 3.88443C25.9053 3.88443 25.4017 4.1244 24.9922 4.60436C24.5938 5.08431 24.3724 5.70937 24.3281 6.47953Z" fill="white"/>
<path d="M38.5742 7.01529C38.5742 8.22076 38.1979 9.20857 37.4453 9.97873C36.7702 10.6596 35.9401 11 34.9551 11C33.8151 11 32.8965 10.5647 32.1992 9.6941C31.6126 8.95743 31.3193 8.06449 31.3193 7.01529C31.3193 5.7875 31.6846 4.79411 32.415 4.03511C33.0791 3.34308 33.9258 2.99707 34.9551 2.99707C36.1172 2.99707 37.0414 3.43796 37.7276 4.31973C38.292 5.05641 38.5742 5.95493 38.5742 7.01529ZM32.5147 7.01529C32.5147 7.98636 32.7637 8.75652 33.2617 9.32577C33.7044 9.82804 34.2634 10.0792 34.9385 10.0792C35.669 10.0792 36.2556 9.80014 36.6983 9.24205C37.152 8.67281 37.3789 7.93055 37.3789 7.01529C37.3789 6.05538 37.1354 5.28522 36.6485 4.70481C36.2058 4.16905 35.6413 3.90117 34.9551 3.90117C34.2246 3.90117 33.6325 4.19137 33.1787 4.77178C32.736 5.34103 32.5147 6.08887 32.5147 7.01529Z" fill="white"/>
<path d="M46.7959 7.38363H41.417C41.4613 8.19843 41.738 8.85139 42.2471 9.34251C42.7673 9.83363 43.4369 10.0792 44.2559 10.0792C44.9421 10.0792 45.6117 9.87269 46.2647 9.45971L46.6465 10.1294C45.916 10.7098 45.0362 11 44.0069 11C42.8115 11 41.8597 10.6038 41.1514 9.8113C40.4984 9.09695 40.1719 8.17053 40.1719 7.03203C40.1719 5.84889 40.5205 4.86108 41.2178 4.0686C41.8486 3.35425 42.6289 2.99707 43.5586 2.99707C44.6765 2.99707 45.5287 3.4547 46.1153 4.36996C46.569 5.08431 46.7959 5.96609 46.7959 7.01529V7.38363ZM41.4004 6.47953H45.6504C45.6172 5.66472 45.418 5.0285 45.0528 4.57087C44.6986 4.11324 44.2061 3.88443 43.5752 3.88443C42.9776 3.88443 42.474 4.1244 42.0645 4.60436C41.666 5.08431 41.4447 5.70937 41.4004 6.47953Z" fill="white"/>
<path d="M55.2305 10.7991H54.1348V6.34559C54.1348 4.76062 53.4486 3.96814 52.0762 3.96814C51.6777 3.96814 51.2848 4.06301 50.8975 4.25276C50.5101 4.44251 50.2113 4.68249 50.001 4.9727V10.7991H48.8887V3.19798H49.8184L49.918 4.00163H49.9678C50.6208 3.33192 51.4398 2.99707 52.4248 2.99707C54.2953 2.99707 55.2305 4.08534 55.2305 6.26187V10.7991Z" fill="white"/>
<path d="M63.1699 10.7988L62.9873 9.99518C62.4561 10.6649 61.6869 10.9997 60.6797 10.9997C59.584 10.9997 58.7152 10.5868 58.0732 9.76079C57.5199 9.04644 57.2432 8.15908 57.2432 7.09871C57.2432 5.75931 57.6305 4.71011 58.4053 3.95111C59.0472 3.31489 59.8386 2.99678 60.7793 2.99678C61.6647 2.99678 62.3731 3.29257 62.9043 3.88414V0.636077L64 0.0166016V10.7988H63.1699ZM62.9043 8.77297V5.13983C62.7604 4.79382 62.5003 4.50361 62.124 4.26922C61.7477 4.02366 61.3493 3.90088 60.9287 3.90088C60.1983 3.90088 59.6006 4.19109 59.1357 4.7715C58.6709 5.34074 58.4385 6.07742 58.4385 6.98152C58.4385 8.0084 58.693 8.80646 59.2022 9.37571C59.6449 9.8445 60.1983 10.0789 60.8623 10.0789C61.305 10.0789 61.709 9.9617 62.0742 9.7273C62.4505 9.48174 62.7272 9.16363 62.9043 8.77297Z" fill="white"/>
<path fill-rule="evenodd" clip-rule="evenodd" d="M7.66482 3.56513H2.38172V2.61377H8.4392L8.85421 3.3102L4.99699 10.799H4.17443L0 3.32407L0.815117 2.85483L4.56574 9.5709L7.66482 3.56513Z" fill="white"/>
</svg>
