<svg width="64" height="14" viewBox="0 0 64 14" fill="none" xmlns="http://www.w3.org/2000/svg">
<g clip-path="url(#clip0_74_128)">
<path d="M12.6021 10.3791C11.869 10.3791 11.1524 10.1667 10.5428 9.76888C9.93328 9.37103 9.4582 8.80556 9.17766 8.14396C8.89711 7.48237 8.82371 6.75437 8.96673 6.05202C9.10975 5.34968 9.46276 4.70453 9.98114 4.19817C10.4995 3.69181 11.16 3.34697 11.879 3.20727C12.598 3.06756 13.3432 3.13927 14.0205 3.41331C14.6978 3.68735 15.2767 4.15142 15.684 4.74684C16.0913 5.34226 16.3086 6.04228 16.3086 6.75839C16.3086 7.23386 16.2128 7.70468 16.0265 8.14396C15.8402 8.58325 15.5672 8.98239 15.223 9.3186C14.8788 9.65481 14.4702 9.92151 14.0205 10.1035C13.5708 10.2854 13.0888 10.3791 12.6021 10.3791ZM12.6021 4.34459C12.1133 4.34459 11.6356 4.48616 11.2292 4.75139C10.8229 5.01662 10.5062 5.39361 10.3191 5.83467C10.1321 6.27573 10.0832 6.76106 10.1785 7.22929C10.2739 7.69752 10.5092 8.12762 10.8548 8.4652C11.2004 8.80277 11.6407 9.03266 12.12 9.1258C12.5993 9.21893 13.0962 9.17113 13.5477 8.98844C13.9992 8.80575 14.3851 8.49636 14.6567 8.09942C14.9282 7.70247 15.0731 7.23579 15.0731 6.75839C15.0731 6.11821 14.8128 5.50425 14.3494 5.05158C13.886 4.5989 13.2574 4.34459 12.6021 4.34459V4.34459Z" fill="#FF005C"/>
<path d="M24.5881 3.1383C24.4245 3.1383 24.2675 3.20185 24.1518 3.31497C24.0361 3.42809 23.9711 3.58152 23.9711 3.74149V4.06721C23.4392 3.59907 22.78 3.29167 22.0731 3.18224C21.3662 3.07281 20.642 3.16603 19.9882 3.45061C19.3344 3.7352 18.779 4.19895 18.3892 4.78574C17.9994 5.37252 17.792 6.05718 17.792 6.75684C17.792 7.4565 17.9994 8.14116 18.3892 8.72794C18.779 9.31473 19.3344 9.77848 19.9882 10.0631C20.642 10.3477 21.3662 10.4409 22.0731 10.3314C22.78 10.222 23.4392 9.91461 23.9711 9.44647V10.3766C23.9717 10.9314 23.7768 11.4694 23.4191 11.9001C23.0613 12.3308 22.5627 12.6278 22.0072 12.7412C21.4517 12.8545 20.8731 12.7772 20.3691 12.5223C19.865 12.2674 19.4663 11.8504 19.2399 11.3417C19.2075 11.2691 19.1607 11.2034 19.1024 11.1484C19.044 11.0934 18.9751 11.0502 18.8997 11.0212C18.7473 10.9628 18.5773 10.9659 18.4273 11.0298C18.2772 11.0938 18.1593 11.2135 18.0995 11.3625C18.0397 11.5114 18.0428 11.6775 18.1083 11.8242C18.4478 12.5874 19.046 13.2128 19.8021 13.5951C20.5582 13.9775 21.426 14.0934 22.2593 13.9235C23.0926 13.7535 23.8405 13.3079 24.3771 12.6619C24.9136 12.0159 25.2061 11.2088 25.2051 10.3766V3.74149C25.2051 3.58152 25.1401 3.42809 25.0244 3.31497C24.9087 3.20185 24.7518 3.1383 24.5881 3.1383V3.1383ZM21.5031 9.17021C21.0149 9.17021 20.5378 9.0287 20.1319 8.76358C19.726 8.49846 19.4097 8.12164 19.2229 7.68077C19.0361 7.23989 18.9872 6.75477 19.0825 6.28674C19.1777 5.81871 19.4127 5.38879 19.7579 5.05136C20.1031 4.71393 20.5428 4.48414 21.0216 4.39104C21.5003 4.29795 21.9966 4.34573 22.4475 4.52834C22.8985 4.71096 23.284 5.02021 23.5552 5.41699C23.8264 5.81376 23.9711 6.28024 23.9711 6.75744C23.9711 7.39735 23.7111 8.01104 23.2482 8.46352C22.7854 8.916 22.1576 9.17021 21.5031 9.17021V9.17021Z" fill="#FF005C"/>
<path d="M36.6955 3.1383C36.5319 3.1383 36.375 3.20185 36.2592 3.31497C36.1435 3.42809 36.0785 3.58152 36.0785 3.74149V4.06721C35.5467 3.59907 34.8874 3.29167 34.1805 3.18224C33.4736 3.07281 32.7495 3.16603 32.0957 3.45061C31.4418 3.7352 30.8864 4.19895 30.4966 4.78574C30.1069 5.37252 29.8994 6.05718 29.8994 6.75684C29.8994 7.4565 30.1069 8.14116 30.4966 8.72794C30.8864 9.31473 31.4418 9.77848 32.0957 10.0631C32.7495 10.3477 33.4736 10.4409 34.1805 10.3314C34.8874 10.222 35.5467 9.91461 36.0785 9.44647V10.3766C36.0792 10.9314 35.8842 11.4694 35.5265 11.9001C35.1688 12.3308 34.6701 12.6278 34.1146 12.7412C33.5591 12.8545 32.9806 12.7772 32.4765 12.5223C31.9725 12.2674 31.5737 11.8504 31.3473 11.3417C31.3149 11.2691 31.2682 11.2034 31.2098 11.1484C31.1514 11.0934 31.0825 11.0502 31.0071 11.0212C30.8547 10.9628 30.6848 10.9659 30.5347 11.0298C30.3847 11.0938 30.2667 11.2135 30.2069 11.3625C30.1471 11.5114 30.1503 11.6775 30.2157 11.8242C30.5553 12.5874 31.1535 13.2128 31.9095 13.5951C32.6656 13.9775 33.5334 14.0934 34.3667 13.9235C35.2 13.7535 35.9479 13.3079 36.4845 12.6619C37.0211 12.0159 37.3135 11.2088 37.3125 10.3766V3.74149C37.3125 3.58152 37.2475 3.42809 37.1318 3.31497C37.0161 3.20185 36.8592 3.1383 36.6955 3.1383ZM33.6105 9.17021C33.1224 9.17021 32.6452 9.0287 32.2393 8.76358C31.8335 8.49846 31.5171 8.12164 31.3303 7.68077C31.1435 7.23989 31.0947 6.75477 31.1899 6.28674C31.2851 5.81871 31.5202 5.38879 31.8653 5.05136C32.2105 4.71393 32.6503 4.48414 33.129 4.39104C33.6078 4.29795 34.104 4.34573 34.555 4.52834C35.0059 4.71096 35.3914 5.02021 35.6626 5.41699C35.9338 5.81376 36.0785 6.28024 36.0785 6.75744C36.0785 7.39735 35.8185 8.01104 35.3557 8.46352C34.8928 8.916 34.2651 9.17021 33.6105 9.17021Z" fill="#FF005C"/>
<path d="M54.4875 3.1383C54.3239 3.1383 54.1669 3.20185 54.0512 3.31497C53.9355 3.42809 53.8705 3.58152 53.8705 3.74149V4.06721C53.3386 3.59907 52.6794 3.29167 51.9725 3.18224C51.2656 3.07281 50.5414 3.16603 49.8876 3.45061C49.2338 3.7352 48.6784 4.19895 48.2886 4.78574C47.8989 5.37252 47.6914 6.05718 47.6914 6.75684C47.6914 7.4565 47.8989 8.14116 48.2886 8.72794C48.6784 9.31473 49.2338 9.77848 49.8876 10.0631C50.5414 10.3477 51.2656 10.4409 51.9725 10.3314C52.6794 10.222 53.3386 9.91461 53.8705 9.44647V10.3766C53.8711 10.9314 53.6762 11.4694 53.3185 11.9001C52.9608 12.3308 52.4621 12.6278 51.9066 12.7412C51.3511 12.8545 50.7726 12.7772 50.2685 12.5223C49.7645 12.2674 49.3657 11.8504 49.1393 11.3417C49.0738 11.195 48.9515 11.0797 48.7991 11.0212C48.6467 10.9628 48.4768 10.9659 48.3267 11.0298C48.1766 11.0938 48.0587 11.2135 47.9989 11.3625C47.9391 11.5114 47.9422 11.6775 48.0077 11.8242C48.3473 12.5874 48.9454 13.2128 49.7015 13.5951C50.4576 13.9775 51.3254 14.0934 52.1587 13.9235C52.992 13.7535 53.7399 13.3079 54.2765 12.6619C54.813 12.0159 55.1055 11.2088 55.1045 10.3766V3.74149C55.1045 3.58152 55.0395 3.42809 54.9238 3.31497C54.8081 3.20185 54.6512 3.1383 54.4875 3.1383V3.1383ZM51.4025 9.17021C50.9144 9.17021 50.4372 9.0287 50.0313 8.76358C49.6255 8.49846 49.3091 8.12164 49.1223 7.68077C48.9355 7.23989 48.8866 6.75477 48.9819 6.28674C49.0771 5.81871 49.3122 5.38879 49.6573 5.05136C50.0025 4.71393 50.4422 4.48414 50.921 4.39104C51.3997 4.29795 51.896 4.34573 52.347 4.52834C52.7979 4.71096 53.1834 5.02021 53.4546 5.41699C53.7258 5.81376 53.8705 6.28024 53.8705 6.75744C53.8705 7.39735 53.6105 8.01104 53.1476 8.46352C52.6848 8.916 52.057 9.17021 51.4025 9.17021Z" fill="#FF005C"/>
<path d="M3.70656 13.9998C2.98505 14.0001 2.27911 13.7947 1.67535 13.4088C1.07159 13.0229 0.596252 12.4733 0.307645 11.8274C0.242109 11.6806 0.23894 11.5144 0.298836 11.3654C0.358732 11.2163 0.476785 11.0966 0.627027 11.0326C0.777269 10.9686 0.947391 10.9655 1.09997 11.024C1.25255 11.0825 1.37508 11.1978 1.44062 11.3446C1.66726 11.8536 2.06654 12.2707 2.57121 12.5257C3.07587 12.7807 3.65509 12.858 4.2113 12.7447C4.76751 12.6313 5.26674 12.3341 5.62489 11.9033C5.98304 11.4724 6.17824 10.9341 6.17761 10.3791V9.45459C5.64445 9.92041 4.98469 10.2256 4.27794 10.3333C3.57118 10.441 2.84761 10.3467 2.19453 10.0616C1.54145 9.77658 0.986747 9.31304 0.59735 8.72691C0.207952 8.14079 0.000492928 7.45712 0 6.75839L0 3.74114C0 3.5811 0.0650853 3.42761 0.180938 3.31444C0.29679 3.20127 0.45392 3.1377 0.617761 3.1377C0.781601 3.1377 0.938731 3.20127 1.05458 3.31444C1.17044 3.42761 1.23552 3.5811 1.23552 3.74114V6.75839C1.23552 7.39856 1.49586 8.01252 1.95927 8.46519C2.42268 8.91787 3.0512 9.17218 3.70656 9.17218C4.36193 9.17218 4.99044 8.91787 5.45385 8.46519C5.91727 8.01252 6.17761 7.39856 6.17761 6.75839V3.74114C6.17761 3.5811 6.24269 3.42761 6.35854 3.31444C6.4744 3.20127 6.63153 3.1377 6.79537 3.1377C6.95921 3.1377 7.11634 3.20127 7.23219 3.31444C7.34804 3.42761 7.41313 3.5811 7.41313 3.74114V10.3791C7.41313 10.8546 7.31725 11.3254 7.13098 11.7647C6.94471 12.2039 6.67169 12.6031 6.3275 12.9393C5.98331 13.2755 5.57471 13.5422 5.125 13.7242C4.6753 13.9061 4.19332 13.9998 3.70656 13.9998Z" fill="#FF005C"/>
<path d="M45.591 3.1383C45.4274 3.1383 45.2705 3.20187 45.1548 3.31503C45.039 3.42819 44.974 3.58167 44.974 3.7417V4.06753C44.4422 3.59923 43.7829 3.29173 43.076 3.18226C42.3691 3.07279 41.645 3.16604 40.9912 3.45072C40.3374 3.73541 39.7819 4.19932 39.3922 4.7863C39.0024 5.37329 38.7949 6.05819 38.7949 6.75808C38.7949 7.45798 39.0024 8.14288 39.3922 8.72986C39.7819 9.31685 40.3374 9.78076 40.9912 10.0654C41.645 10.3501 42.3691 10.4434 43.076 10.3339C43.7829 10.2244 44.4422 9.91694 44.974 9.44863V9.77568C44.974 9.93571 45.039 10.0892 45.1548 10.2023C45.2705 10.3155 45.4274 10.3791 45.591 10.3791C45.7547 10.3791 45.9116 10.3155 46.0273 10.2023C46.143 10.0892 46.208 9.93571 46.208 9.77568V3.7417C46.208 3.58167 46.143 3.42819 46.0273 3.31503C45.9116 3.20187 45.7547 3.1383 45.591 3.1383ZM42.506 9.17228C42.0179 9.17228 41.5407 9.03072 41.1348 8.76551C40.729 8.50031 40.4126 8.12335 40.2258 7.68233C40.039 7.2413 39.9902 6.75601 40.0854 6.28782C40.1806 5.81963 40.4157 5.38957 40.7608 5.05202C41.106 4.71447 41.5458 4.4846 42.0245 4.39147C42.5033 4.29834 42.9995 4.34614 43.4505 4.52882C43.9014 4.7115 44.2869 5.02086 44.5581 5.41777C44.8293 5.81468 44.974 6.28133 44.974 6.75869C44.974 7.39881 44.714 8.01272 44.2512 8.46535C43.7883 8.91799 43.1606 9.17228 42.506 9.17228Z" fill="#FF005C"/>
<path d="M27.5523 10.3791C27.3885 10.3791 27.2314 10.3155 27.1155 10.2023C26.9997 10.0892 26.9346 9.93567 26.9346 9.77563V3.74114C26.9346 3.5811 26.9997 3.42761 27.1155 3.31444C27.2314 3.20127 27.3885 3.1377 27.5523 3.1377C27.7162 3.1377 27.8733 3.20127 27.9892 3.31444C28.105 3.42761 28.1701 3.5811 28.1701 3.74114V9.77563C28.1701 9.93567 28.105 10.0892 27.9892 10.2023C27.8733 10.3155 27.7162 10.3791 27.5523 10.3791Z" fill="#FF005C"/>
<path d="M60.2935 10.3791C59.5604 10.3791 58.8438 10.1667 58.2342 9.76888C57.6247 9.37103 57.1496 8.80556 56.8691 8.14396C56.5885 7.48237 56.5151 6.75437 56.6581 6.05202C56.8012 5.34968 57.1542 4.70453 57.6725 4.19817C58.1909 3.69181 58.8514 3.34697 59.5704 3.20727C60.2894 3.06756 61.0346 3.13927 61.7119 3.41331C62.3892 3.68735 62.9681 4.15142 63.3754 4.74684C63.7827 5.34226 64 6.04228 64 6.75839C64 6.91843 63.935 7.07192 63.8191 7.18509C63.7033 7.29826 63.5461 7.36184 63.3823 7.36184H57.9003C58.016 7.80042 58.2557 8.19836 58.592 8.51016C58.9283 8.82196 59.3476 9.03505 59.802 9.12506C60.2565 9.21507 60.7276 9.17838 61.1617 9.01917C61.5958 8.85997 61.9752 8.58468 62.2567 8.22477C62.3563 8.09769 62.5036 8.01447 62.666 7.99343C62.8284 7.97238 62.9927 8.01522 63.1228 8.11253C63.2529 8.20983 63.3381 8.35363 63.3597 8.5123C63.3812 8.67096 63.3373 8.83148 63.2377 8.95856C62.893 9.40174 62.4476 9.76071 61.9367 10.0072C61.4258 10.2537 60.8633 10.381 60.2935 10.3791V10.3791ZM57.9003 6.15494H62.6867C62.5502 5.63626 62.2409 5.17666 61.8077 4.84849C61.3744 4.52032 60.8417 4.34221 60.2935 4.34221C59.7452 4.34221 59.2125 4.52032 58.7793 4.84849C58.346 5.17666 58.0368 5.63626 57.9003 6.15494Z" fill="#FF005C"/>
<path d="M27.5568 1.93103C28.1027 1.93103 28.5452 1.49876 28.5452 0.965517C28.5452 0.432277 28.1027 0 27.5568 0C27.0109 0 26.5684 0.432277 26.5684 0.965517C26.5684 1.49876 27.0109 1.93103 27.5568 1.93103Z" fill="#FF005C"/>
</g>
<defs>
<clipPath id="clip0_74_128">
<rect width="64" height="14" fill="white"/>
</clipPath>
</defs>
</svg>
