<svg width="61" height="11" viewBox="0 0 61 11" fill="none" xmlns="http://www.w3.org/2000/svg">
<path fill-rule="evenodd" clip-rule="evenodd" d="M61 8.74697V10.4844H50.1615V0H61V1.77302H51.8357V4.37828H59.3382V6.12391H51.8357V8.74697H61ZM43.4678 2.61353L42.582 1.74559H35.1111V8.74697H42.582L43.4678 7.93672V2.61353ZM43.4645 10.4844H33.4243V0H43.4645L45.1302 1.75933V8.71953L43.4645 10.4844ZM23.4177 6.08543V10.4844H21.7369V6.08543L16.1637 0H18.3989L22.547 4.83159L26.7872 0H29.0007L23.4177 6.08543ZM10.0349 3.64494V2.56416L9.18532 1.75933H1.67622V4.37828H9.18532L10.0349 3.64494ZM11.9347 10.4844H9.71992L7.78726 6.12391H1.67622V10.4844H0V0H10.0224L11.721 1.58212V4.67626L9.86065 5.96873L11.9347 10.4844Z" fill="#38F1DC"/>
</svg>
