<svg width="210" height="210" viewBox="0 0 210 210" fill="none" xmlns="http://www.w3.org/2000/svg">
<path d="M167.016 86.6522C163.975 95.014 159.281 102.675 153.215 109.176C147.15 115.677 139.837 120.885 131.715 124.487C123.594 128.089 114.83 130.012 105.949 130.14C97.0682 130.268 88.2528 128.599 80.031 125.233C47.5781 112.005 31.0767 75.1607 42.7377 42.0695C46.2941 31.931 52.2671 22.8159 60.138 15.5161C68.009 8.21626 77.5397 2.95247 87.9021 0.182008C88.6222 -0.0081584 89.3733 -0.0498425 90.1099 0.059476C90.8465 0.168795 91.5533 0.42684 92.1875 0.817978C92.8216 1.20912 93.3699 1.7252 93.7991 2.33495C94.2282 2.9447 94.5294 3.63542 94.6842 4.36525L96.9449 17.0969C97.1136 18.0487 97.5292 18.9394 98.15 19.6794C98.7708 20.4195 99.575 20.9829 100.482 21.3132L104.717 22.8564C105.665 23.2016 106.499 23.801 107.13 24.5893C107.76 25.3776 108.163 26.3244 108.292 27.3262L109.943 40.1129C109.998 40.8542 110.265 41.5638 110.713 42.1563C111.161 42.7488 111.77 43.1991 112.467 43.4529C113.165 43.7067 113.92 43.7534 114.643 43.5871C115.366 43.4209 116.026 43.049 116.543 42.516L126.086 33.7967C126.829 33.1194 127.742 32.6587 128.727 32.4644C129.712 32.27 130.732 32.3496 131.675 32.6944L135.866 34.2211C136.773 34.5517 137.75 34.6376 138.7 34.4702C139.65 34.3029 140.539 33.8881 141.279 33.2676L151.18 24.9673C151.772 24.5047 152.453 24.1686 153.18 23.9796C153.907 23.7906 154.664 23.7528 155.406 23.8684C156.149 23.9841 156.859 24.2508 157.494 24.6521C158.13 25.0534 158.676 25.5809 159.1 26.2019C165.172 34.8982 169.062 44.9333 170.44 55.4565C171.818 65.9797 170.643 76.6807 167.016 86.6522Z" fill="#FF005C"/>
<path d="M93.7964 63.8546V83.4069C93.7989 83.8065 93.9021 84.199 94.0964 84.548C94.2908 84.8969 94.57 85.1909 94.9081 85.4027C95.2462 85.6145 95.6322 85.7372 96.0302 85.7594C96.4283 85.7816 96.8255 85.7026 97.185 85.5298L117.753 75.7481C118.154 75.5596 118.494 75.2604 118.732 74.8854C118.97 74.5104 119.096 74.0752 119.096 73.6307C119.096 73.1863 118.97 72.7511 118.732 72.3761C118.494 72.0011 118.154 71.7018 117.753 71.5134L97.185 61.7317C96.8255 61.5588 96.4283 61.4798 96.0302 61.5021C95.6322 61.5243 95.2462 61.647 94.9081 61.8588C94.57 62.0706 94.2908 62.3646 94.0964 62.7135C93.9021 63.0624 93.7989 63.4549 93.7964 63.8546Z" fill="white"/>
<ellipse cx="105" cy="145.588" rx="27.5" ry="4.41177" fill="#1DE9B6"/>
<g clip-path="url(#clip0_34_83)">
<path d="M51.0502 199.655C49.0113 199.655 47.0182 199.048 45.3229 197.912C43.6276 196.775 42.3063 195.159 41.5261 193.269C40.7458 191.379 40.5416 189.299 40.9394 187.292C41.3372 185.285 42.319 183.442 43.7607 181.995C45.2025 180.549 47.0393 179.563 49.0391 179.164C51.0388 178.765 53.1116 178.97 54.9953 179.753C56.879 180.536 58.489 181.862 59.6217 183.563C60.7545 185.264 61.3591 187.264 61.3591 189.31C61.3591 190.669 61.0925 192.014 60.5744 193.269C60.0563 194.524 59.297 195.665 58.3397 196.625C57.3824 197.586 56.246 198.348 54.9953 198.868C53.7445 199.388 52.404 199.655 51.0502 199.655ZM51.0502 182.414C49.6909 182.414 48.3622 182.818 47.232 183.576C46.1018 184.334 45.2209 185.411 44.7008 186.671C44.1806 187.931 44.0445 189.318 44.3097 190.656C44.5749 191.994 45.2294 193.222 46.1906 194.187C47.1517 195.151 48.3763 195.808 49.7094 196.074C51.0426 196.34 52.4244 196.204 53.6802 195.682C54.936 195.16 56.0094 194.276 56.7646 193.142C57.5197 192.008 57.9228 190.674 57.9228 189.31C57.9228 187.481 57.1987 185.727 55.9099 184.434C54.621 183.14 52.8729 182.414 51.0502 182.414Z" fill="#FF005C"/>
<path d="M84.3844 178.967C83.9292 178.967 83.4928 179.149 83.1709 179.472C82.8491 179.795 82.6683 180.234 82.6683 180.691V181.621C81.189 180.284 79.3554 179.405 77.3894 179.093C75.4234 178.78 73.4093 179.046 71.5909 179.86C69.7725 180.673 68.2278 181.998 67.1437 183.674C66.0596 185.351 65.4827 187.307 65.4827 189.306C65.4827 191.305 66.0596 193.261 67.1437 194.938C68.2278 196.614 69.7725 197.939 71.5909 198.752C73.4093 199.565 75.4234 199.832 77.3894 199.519C79.3554 199.206 81.189 198.328 82.6683 196.991V199.648C82.6701 201.233 82.1278 202.77 81.1329 204.001C80.138 205.232 78.7513 206.08 77.2062 206.404C75.6611 206.728 74.0521 206.507 72.6502 205.779C71.2483 205.05 70.1392 203.859 69.5096 202.406C69.4195 202.198 69.2895 202.01 69.1272 201.853C68.9648 201.696 68.7732 201.573 68.5633 201.49C68.1395 201.323 67.6669 201.332 67.2496 201.515C66.8322 201.697 66.5043 202.039 66.3379 202.465C66.1715 202.89 66.1803 203.365 66.3624 203.784C67.3068 205.965 68.9705 207.751 71.0733 208.844C73.1761 209.936 75.5896 210.268 77.9072 209.782C80.2249 209.296 82.305 208.023 83.7974 206.178C85.2897 204.332 86.1031 202.026 86.1004 199.648V180.691C86.1004 180.234 85.9196 179.795 85.5978 179.472C85.276 179.149 84.8395 178.967 84.3844 178.967ZM75.8041 196.201C74.4465 196.201 73.1194 195.797 71.9906 195.039C70.8617 194.282 69.9819 193.205 69.4624 191.946C68.9429 190.686 68.8069 189.3 69.0718 187.963C69.3366 186.626 69.9904 185.397 70.9504 184.433C71.9104 183.469 73.1334 182.812 74.465 182.547C75.7965 182.281 77.1767 182.417 78.4309 182.939C79.6852 183.461 80.7572 184.344 81.5115 185.478C82.2657 186.611 82.6683 187.944 82.6683 189.308C82.6683 191.136 81.9451 192.889 80.6578 194.182C79.3705 195.475 77.6246 196.201 75.8041 196.201Z" fill="#FF005C"/>
<path d="M118.06 178.967C117.605 178.967 117.168 179.149 116.847 179.472C116.525 179.795 116.344 180.234 116.344 180.691V181.621C114.865 180.284 113.031 179.405 111.065 179.093C109.099 178.78 107.085 179.046 105.267 179.86C103.448 180.673 101.903 181.998 100.819 183.674C99.7353 185.351 99.1583 187.307 99.1583 189.306C99.1583 191.305 99.7353 193.261 100.819 194.938C101.903 196.614 103.448 197.939 105.267 198.752C107.085 199.565 109.099 199.832 111.065 199.519C113.031 199.206 114.865 198.328 116.344 196.991V199.648C116.346 201.233 115.804 202.77 114.809 204.001C113.814 205.232 112.427 206.08 110.882 206.404C109.337 206.728 107.728 206.507 106.326 205.779C104.924 205.05 103.815 203.859 103.185 202.406C103.095 202.198 102.965 202.01 102.803 201.853C102.64 201.696 102.449 201.573 102.239 201.49C101.815 201.323 101.343 201.332 100.925 201.515C100.508 201.697 100.18 202.039 100.014 202.465C99.8472 202.89 99.856 203.365 100.038 203.784C100.982 205.965 102.646 207.751 104.749 208.844C106.852 209.936 109.265 210.268 111.583 209.782C113.901 209.296 115.981 208.023 117.473 206.178C118.965 204.332 119.779 202.026 119.776 199.648V180.691C119.776 180.234 119.595 179.795 119.273 179.472C118.952 179.149 118.515 178.967 118.06 178.967ZM109.48 196.201C108.122 196.201 106.795 195.797 105.666 195.039C104.537 194.282 103.658 193.205 103.138 191.946C102.619 190.686 102.483 189.3 102.747 187.963C103.012 186.626 103.666 185.397 104.626 184.433C105.586 183.469 106.809 182.812 108.141 182.547C109.472 182.281 110.852 182.417 112.107 182.939C113.361 183.461 114.433 184.344 115.187 185.478C115.941 186.611 116.344 187.944 116.344 189.308C116.344 191.136 115.621 192.889 114.333 194.182C113.046 195.475 111.3 196.201 109.48 196.201Z" fill="#FF005C"/>
<path d="M167.543 178.967C167.087 178.967 166.651 179.149 166.329 179.472C166.007 179.795 165.827 180.234 165.827 180.691V181.621C164.347 180.284 162.514 179.405 160.548 179.093C158.582 178.78 156.568 179.046 154.749 179.86C152.931 180.673 151.386 181.998 150.302 183.674C149.218 185.351 148.641 187.307 148.641 189.306C148.641 191.305 149.218 193.261 150.302 194.938C151.386 196.614 152.931 197.939 154.749 198.752C156.568 199.565 158.582 199.832 160.548 199.519C162.514 199.206 164.347 198.328 165.827 196.991V199.648C165.828 201.233 165.286 202.77 164.291 204.001C163.296 205.232 161.909 206.08 160.364 206.404C158.819 206.728 157.21 206.507 155.808 205.779C154.407 205.05 153.297 203.859 152.668 202.406C152.486 201.986 152.145 201.657 151.722 201.49C151.298 201.323 150.825 201.332 150.408 201.515C149.99 201.697 149.662 202.039 149.496 202.465C149.33 202.89 149.339 203.365 149.521 203.784C150.465 205.965 152.129 207.751 154.232 208.844C156.334 209.936 158.748 210.268 161.065 209.782C163.383 209.296 165.463 208.023 166.956 206.178C168.448 204.332 169.261 202.026 169.259 199.648V180.691C169.259 180.234 169.078 179.795 168.756 179.472C168.434 179.149 167.998 178.967 167.543 178.967ZM158.962 196.201C157.605 196.201 156.278 195.797 155.149 195.039C154.02 194.282 153.14 193.205 152.621 191.946C152.101 190.686 151.965 189.3 152.23 187.963C152.495 186.626 153.149 185.397 154.109 184.433C155.069 183.469 156.292 182.812 157.623 182.547C158.955 182.281 160.335 182.417 161.589 182.939C162.843 183.461 163.915 184.344 164.67 185.478C165.424 186.611 165.827 187.944 165.827 189.308C165.827 191.136 165.103 192.889 163.816 194.182C162.529 195.475 160.783 196.201 158.962 196.201Z" fill="#FF005C"/>
<path d="M26.3089 210C24.3022 210.001 22.3388 209.414 20.6596 208.312C18.9804 207.209 17.6583 205.639 16.8556 203.793C16.6734 203.374 16.6646 202.899 16.8311 202.473C16.9977 202.047 17.3261 201.705 17.7439 201.522C18.1618 201.34 18.6349 201.331 19.0593 201.498C19.4836 201.665 19.8244 201.994 20.0067 202.414C20.6371 203.868 21.7476 205.06 23.1512 205.788C24.5548 206.517 26.1657 206.738 27.7127 206.414C29.2596 206.09 30.6481 205.241 31.6442 204.01C32.6403 202.779 33.1832 201.241 33.1815 199.655V197.014C31.6986 198.345 29.8637 199.217 27.898 199.524C25.9323 199.832 23.9199 199.563 22.1035 198.748C20.2872 197.934 18.7444 196.609 17.6614 194.935C16.5784 193.26 16.0014 191.307 16 189.31V180.69C16 180.232 16.181 179.794 16.5032 179.471C16.8254 179.147 17.2625 178.966 17.7181 178.966C18.1738 178.966 18.6108 179.147 18.9331 179.471C19.2553 179.794 19.4363 180.232 19.4363 180.69V189.31C19.4363 191.139 20.1604 192.894 21.4492 194.187C22.7381 195.48 24.4862 196.207 26.3089 196.207C28.1316 196.207 29.8797 195.48 31.1685 194.187C32.4574 192.894 33.1815 191.139 33.1815 189.31V180.69C33.1815 180.232 33.3625 179.794 33.6847 179.471C34.0069 179.147 34.4439 178.966 34.8996 178.966C35.3553 178.966 35.7923 179.147 36.1145 179.471C36.4367 179.794 36.6178 180.232 36.6178 180.69V199.655C36.6178 201.014 36.3511 202.359 35.833 203.614C35.315 204.869 34.5556 206.009 33.5984 206.97C32.6411 207.931 31.5047 208.693 30.2539 209.213C29.0032 209.732 27.6627 210 26.3089 210Z" fill="#FF005C"/>
<path d="M142.801 178.967C142.346 178.967 141.91 179.149 141.588 179.472C141.266 179.796 141.085 180.234 141.085 180.691V181.622C139.606 180.284 137.772 179.406 135.806 179.093C133.84 178.78 131.826 179.046 130.008 179.86C128.19 180.673 126.645 181.999 125.561 183.676C124.477 185.353 123.9 187.31 123.9 189.309C123.9 191.309 124.477 193.266 125.561 194.943C126.645 196.62 128.19 197.946 130.008 198.759C131.826 199.572 133.84 199.839 135.806 199.526C137.772 199.213 139.606 198.335 141.085 196.997V197.931C141.085 198.388 141.266 198.827 141.588 199.15C141.91 199.474 142.346 199.655 142.801 199.655C143.256 199.655 143.693 199.474 144.015 199.15C144.337 198.827 144.517 198.388 144.517 197.931V180.691C144.517 180.234 144.337 179.796 144.015 179.472C143.693 179.149 143.256 178.967 142.801 178.967ZM134.221 196.207C132.863 196.207 131.536 195.803 130.408 195.045C129.279 194.287 128.399 193.21 127.879 191.95C127.36 190.69 127.224 189.304 127.489 187.966C127.754 186.628 128.407 185.399 129.367 184.435C130.327 183.471 131.55 182.814 132.882 182.548C134.213 182.282 135.594 182.418 136.848 182.94C138.102 183.462 139.174 184.346 139.928 185.48C140.683 186.614 141.085 187.947 141.085 189.311C141.085 191.14 140.362 192.894 139.075 194.187C137.788 195.481 136.042 196.207 134.221 196.207Z" fill="#FF005C"/>
<path d="M92.6293 199.655C92.1736 199.655 91.7366 199.474 91.4144 199.15C91.0922 198.827 90.9111 198.388 90.9111 197.931V180.69C90.9111 180.232 91.0922 179.794 91.4144 179.471C91.7366 179.147 92.1736 178.966 92.6293 178.966C93.085 178.966 93.522 179.147 93.8442 179.471C94.1664 179.794 94.3474 180.232 94.3474 180.69V197.931C94.3474 198.388 94.1664 198.827 93.8442 199.15C93.522 199.474 93.085 199.655 92.6293 199.655Z" fill="#FF005C"/>
<path d="M183.691 199.655C181.652 199.655 179.659 199.048 177.964 197.912C176.269 196.775 174.947 195.159 174.167 193.269C173.387 191.379 173.183 189.299 173.58 187.292C173.978 185.285 174.96 183.442 176.402 181.995C177.843 180.549 179.68 179.563 181.68 179.164C183.68 178.765 185.752 178.97 187.636 179.753C189.52 180.536 191.13 181.862 192.263 183.563C193.395 185.264 194 187.264 194 189.31C194 189.768 193.819 190.206 193.497 190.529C193.175 190.853 192.738 191.034 192.282 191.034H177.035C177.357 192.288 178.024 193.425 178.959 194.315C179.894 195.206 181.06 195.815 182.324 196.072C183.588 196.329 184.899 196.225 186.106 195.77C187.313 195.315 188.369 194.528 189.151 193.5C189.428 193.137 189.838 192.899 190.29 192.839C190.741 192.779 191.198 192.901 191.56 193.179C191.922 193.457 192.159 193.868 192.219 194.322C192.279 194.775 192.157 195.233 191.88 195.597C190.921 196.863 189.682 197.888 188.261 198.593C186.84 199.297 185.276 199.661 183.691 199.655ZM177.035 187.586H190.347C189.968 186.104 189.107 184.791 187.902 183.853C186.697 182.916 185.216 182.407 183.691 182.407C182.166 182.407 180.685 182.916 179.48 183.853C178.275 184.791 177.415 186.104 177.035 187.586Z" fill="#FF005C"/>
<path d="M92.6431 175.517C94.1613 175.517 95.3921 174.282 95.3921 172.759C95.3921 171.235 94.1613 170 92.6431 170C91.1248 170 89.894 171.235 89.894 172.759C89.894 174.282 91.1248 175.517 92.6431 175.517Z" fill="#FF005C"/>
</g>
<defs>
<clipPath id="clip0_34_83">
<rect width="178" height="40" fill="white" transform="translate(16 170)"/>
</clipPath>
</defs>
</svg>
