<svg width="160" height="160" viewBox="0 0 160 160" fill="none" xmlns="http://www.w3.org/2000/svg">
<path d="M73.1401 70.2977C68.826 70.2977 65.0345 69.1134 61.9338 67.1318V77.7446L73.092 91.5177L84.2501 77.7446V66.8362C81.0892 69.0168 77.262 70.2977 73.1401 70.2977Z" fill="#EA976E"/>
<path d="M68.2735 69.7621C65.9335 69.2325 63.807 68.329 61.9338 67.1318V77.745L68.2735 85.5706V69.7621Z" fill="#DD855F"/>
<path d="M56.0878 157.803V157.42H106.492V135.808C106.492 133.799 108.121 132.169 110.13 132.169H124.687C124.687 122.018 124.687 111.281 124.687 105.338C124.687 92.8916 113.769 88.4032 113.769 88.4032L84.25 76.9713L73.0918 90.7444L61.9337 76.9713L32.4459 88.4032C32.4459 88.4032 21.5281 92.8916 21.5281 105.338C21.5281 111.281 21.5281 122.017 21.5281 132.169H36.085C38.094 132.169 39.7231 133.798 39.7231 135.808V157.803C44.4646 157.803 50.0715 157.803 56.0878 157.803Z" fill="#FF5050"/>
<path d="M27.7784 102.525C27.7784 93.7972 33.1437 88.9866 36.3518 86.8888L32.4459 88.4029C32.4459 88.4029 21.5281 92.8913 21.5281 105.337C21.5281 111.281 21.5281 122.017 21.5281 132.169H27.7784C27.7784 118.85 27.7784 105.643 27.7784 102.525Z" fill="#F24646"/>
<path d="M72.8555 2.48999C58.1071 2.48999 46.1521 14.4453 46.1521 29.1937V40.6016C47.9368 38.9472 50.4758 38.0481 52.9543 38.3794V37.0487C52.9543 35.9909 53.8574 35.1556 54.9046 35.2347C65.229 35.9762 75.7362 32.6956 83.6808 27.5059C84.4224 27.0212 85.4046 27.1419 86.0071 27.7897C92.799 35.0903 92.758 34.8078 92.758 35.7612V38.3744C95.4749 37.9672 97.8846 38.8066 99.559 40.3631V29.1944C99.559 14.4456 87.6037 2.48999 72.8555 2.48999Z" fill="#5B5D6E"/>
<path d="M52.954 29.194C52.954 15.5987 63.1155 4.38492 76.2568 2.71336C75.1424 2.57148 74.009 2.49023 72.8555 2.49023C58.1071 2.49023 46.1521 14.4455 46.1521 29.194V40.6018C47.9368 38.9474 50.4755 38.0484 52.954 38.3796V29.194Z" fill="#4D4F5B"/>
<path d="M36.4718 131.782H21.5281C21.5281 138.972 21.5281 150.252 21.5281 154.164C21.5281 156.173 23.1568 157.802 25.1662 157.802H40.11V135.421C40.1096 133.411 38.4809 131.782 36.4718 131.782Z" fill="#EA976E"/>
<path d="M27.7784 154.164C27.7784 150.252 27.7784 138.972 27.7784 131.782H21.5281C21.5281 138.972 21.5281 150.252 21.5281 154.164C21.5281 156.173 23.1568 157.802 25.1662 157.802H31.4165C29.4074 157.802 27.7784 156.173 27.7784 154.164Z" fill="#DD855F"/>
<path d="M91.984 36.8256V51.4537C91.984 51.6122 91.9756 51.7691 91.9718 51.9269C97.1484 52.7106 101.977 48.9703 101.977 44.3769C101.977 39.7744 97.1449 36.0522 91.984 36.8256Z" fill="#EA976E"/>
<path d="M53.7281 51.454V36.8315C49.2212 36.2297 43.735 39.6887 43.735 44.3768C43.735 48.9643 48.5544 52.7115 53.7397 51.9265C53.7359 51.769 53.7281 51.6118 53.7281 51.454Z" fill="#EA976E"/>
<path d="M99.5712 39.1369C97.6781 37.3753 94.8831 36.3913 91.9844 36.826V51.4541C91.9844 51.6125 91.9759 51.7694 91.9722 51.9272C94.88 52.3675 97.6772 51.3803 99.5712 49.6166V39.1369Z" fill="#DD855F"/>
<path d="M53.7281 50.2665C51.7984 48.854 50.5322 46.7265 50.5322 44.3771C50.5322 42.0783 51.8522 40.0768 53.7281 38.703V36.8318C49.2215 36.2299 43.735 39.689 43.735 44.3771C43.735 48.9646 48.5544 52.7118 53.7397 51.9268C53.7359 51.769 53.7281 51.6118 53.7281 51.454V50.2665Z" fill="#DD855F"/>
<path d="M86.5647 97.8216L94.9087 81.0991L84.2503 76.9713L73.0922 90.7444L83.9709 98.4704C84.8515 99.096 86.0822 98.7879 86.5647 97.8216Z" fill="#F98282"/>
<path d="M59.6347 97.8216L51.2906 81.0991L61.9491 76.9713L73.1072 90.7444L62.2285 98.4704C61.3478 99.096 60.1169 98.7879 59.6347 97.8216Z" fill="#F98282"/>
<path d="M86.0072 26.2415C85.4043 25.5937 84.4225 25.4734 83.6809 25.9578C75.7362 31.1475 65.2293 34.4284 54.9047 33.6868C53.8575 33.6075 52.9543 34.4431 52.9543 35.5006V51.4537C52.9543 61.7068 60.9884 71.0715 73.1403 71.0715C83.9578 71.0715 92.7584 62.2709 92.7584 51.4537V34.2128C92.7578 33.2597 92.7987 33.5422 86.0072 26.2415Z" fill="#F0A479"/>
<path d="M59.2044 51.4537V33.7662C57.7725 33.8125 56.3366 33.7897 54.9044 33.6869C53.8572 33.6075 52.9541 34.4431 52.9541 35.5009V51.4541C52.9541 61.7072 60.9882 71.0719 73.14 71.0719C74.1641 71.0719 75.17 70.9922 76.1525 70.8403C65.8319 69.3437 59.2044 60.7659 59.2044 51.4537Z" fill="#EA976E"/>
<path d="M130.651 85.4353H64.0716C61.5175 85.4353 59.4275 87.5478 59.4275 90.1303V141.219C59.4275 143.801 61.5172 145.914 64.0716 145.914H130.651C133.206 145.914 135.295 143.801 135.295 141.219V90.1297C135.295 87.5478 133.205 85.4353 130.651 85.4353Z" fill="#E4EAF8"/>
<path d="M66.2249 141.218V90.1297C66.2249 87.5478 68.3146 85.4347 70.8687 85.4347H64.0715C61.5174 85.4347 59.4277 87.5472 59.4277 90.1297V141.218C59.4277 143.801 61.5174 145.913 64.0715 145.913H70.8687C68.3146 145.913 66.2249 143.801 66.2249 141.218Z" fill="#D8DCE5"/>
<path d="M138.637 145.257H56.0852C53.5312 145.257 51.4412 147.346 51.4412 149.901V153.159C51.4412 155.713 53.5308 157.803 56.0852 157.803H138.637C141.191 157.803 143.281 155.713 143.281 153.159V149.901C143.281 147.347 141.191 145.257 138.637 145.257Z" fill="#D8DCE5"/>
<path d="M138.637 151.529H56.0854C54.0592 151.529 52.3292 150.212 51.6992 148.393C51.5351 148.867 51.4417 149.373 51.4417 149.9V153.158C51.4417 155.713 53.5313 157.803 56.0857 157.803H138.638C141.192 157.803 143.282 155.713 143.282 153.158V149.9C143.282 149.373 143.188 148.867 143.024 148.393C142.394 150.212 140.664 151.529 138.637 151.529Z" fill="#C3C8D1"/>
<path d="M88.8787 106.175C87.9368 105.287 86.4534 105.331 85.5652 106.274L77.1131 115.243C76.2621 116.146 76.2621 117.555 77.1131 118.458L85.5652 127.427C86.4534 128.37 87.9368 128.413 88.8787 127.526C89.8209 126.638 89.8646 125.155 88.9768 124.212L82.0399 116.851L88.9768 109.489C89.8646 108.547 89.8206 107.063 88.8787 106.175Z" fill="black"/>
<path d="M105.835 127.526C106.775 128.412 108.259 128.371 109.148 127.427L117.601 118.458C118.452 117.555 118.452 116.146 117.601 115.243L109.148 106.273C108.26 105.331 106.777 105.288 105.835 106.175C104.893 107.063 104.849 108.546 105.737 109.488L112.674 116.85L105.737 124.212C104.849 125.154 104.893 126.638 105.835 127.526Z" fill="black"/>
<path d="M98.0775 107.149L92.1828 125.087C91.7788 126.317 92.4481 127.642 93.6775 128.046C94.9047 128.45 96.2316 127.782 96.6363 126.551L102.531 108.613C102.935 107.383 102.266 106.058 101.036 105.654C99.8053 105.25 98.4813 105.92 98.0775 107.149Z" fill="black"/>
<path d="M138.632 142.767H137.243C137.496 142.046 137.634 141.272 137.634 140.467V122.71C137.634 121.416 136.585 120.366 135.29 120.366C133.996 120.366 132.947 121.416 132.947 122.71V140.467C132.947 141.735 131.915 142.767 130.647 142.767H64.0669C62.7987 142.767 61.7672 141.735 61.7672 140.467C61.7672 137.862 61.7672 92.1069 61.7672 89.9328C61.7672 89.8534 61.7712 89.7753 61.7791 89.6981C61.8972 88.54 62.8781 87.6331 64.0669 87.6331C67.2647 87.6331 126.78 87.6331 130.647 87.6331C131.915 87.6331 132.946 88.665 132.946 89.9331V111.772C132.946 113.066 133.995 114.115 135.29 114.115C136.585 114.115 137.634 113.066 137.634 111.772V89.9331C137.634 86.08 134.499 82.9453 130.646 82.9453H106.538L86.5887 75.2194V68.6475C91.0394 65.1862 94.1253 60.0553 94.9 54.2019C97.1191 54.0456 99.1781 53.2169 100.86 51.7709C103.056 49.8825 104.316 47.1341 104.316 44.2316C104.316 41.8231 103.447 39.5228 101.898 37.7309V29.0478C101.898 13.0309 88.8678 0 72.8509 0C56.8341 0 43.8034 13.0309 43.8034 29.0478V37.9575C42.2381 39.7319 41.3869 41.9153 41.3869 44.2309C41.3869 49.4166 45.37 53.8184 50.7991 54.2016C51.5803 60.1669 54.7575 65.4884 59.5856 68.995V75.22L31.5947 86.0716C31.58 86.0772 31.5653 86.0831 31.5506 86.0891C31.0456 86.2966 19.1803 91.3338 19.1803 105.192C19.1803 108.258 19.1803 152.713 19.1803 154.018C19.1803 157.317 21.864 160 25.1622 160C27.2462 160 90.9469 160 91.8887 160C93.1834 160 94.2325 158.951 94.2325 157.656C94.2325 156.362 93.1834 155.312 91.8887 155.312H56.0809C55.9225 155.312 55.7675 155.296 55.6181 155.266C54.5712 155.051 53.7812 154.122 53.7812 153.013V149.754C53.7812 148.486 54.8131 147.455 56.0809 147.455C59.4397 147.455 133.986 147.455 138.632 147.455C139.901 147.455 140.932 148.486 140.932 149.754V153.013C140.932 154.281 139.9 155.312 138.632 155.312H102.826C101.531 155.312 100.482 156.362 100.482 157.656C100.482 158.951 101.531 160 102.826 160H138.632C142.486 160 145.62 156.865 145.62 153.012V149.754C145.62 145.901 142.486 142.767 138.632 142.767ZM91.6572 82.2087L91.29 82.9447H82.3034L84.9912 79.6269L91.6572 82.2087ZM61.1862 79.6316L63.8728 82.9475C60.849 83.0303 58.2531 85.0537 57.3775 87.9106L54.5322 82.2087L61.1862 79.6316ZM97.8034 48.2159C97.0366 48.8753 96.1109 49.2969 95.0969 49.4619V39.0003C97.7903 39.4388 99.6278 41.6722 99.6278 44.2306C99.6281 45.7662 98.9631 47.2188 97.8034 48.2159ZM48.4909 29.0478C48.4909 15.6156 59.4187 4.68781 72.8506 4.68781C86.2825 4.68781 97.2103 15.6156 97.2103 29.0478V34.6866C96.5291 34.4794 95.8222 34.3425 95.0972 34.2781C95.0972 33.2644 95.1034 32.7738 94.3959 31.8025C93.6116 30.7256 92.0703 29.1772 87.7184 24.4994C87.7181 24.4991 87.7181 24.4991 87.7178 24.4988C86.3584 23.0378 84.1172 22.7234 82.3941 23.85C74.2284 29.1841 64.27 31.8647 55.0769 31.2037C53.044 31.0497 51.2212 32.4003 50.7312 34.3431C49.9687 34.4309 49.1144 34.6362 48.4912 34.8478V29.0478H48.4909ZM46.0741 44.2306C46.0741 41.7259 48.1506 39.6859 50.6053 39.1184V49.4622C47.8809 49.02 46.0741 46.7669 46.0741 44.2306ZM55.3037 51.7419C55.3037 51.7366 55.3044 51.7316 55.3041 51.7262L55.2994 51.5703C55.2978 51.4828 55.2928 51.395 55.2928 51.3075V36.685V35.9147C65.195 36.4947 75.8153 33.6309 84.5859 28.0137C87.9172 31.5912 89.8187 33.5703 90.4091 34.2947C90.4091 36.1334 90.4091 49.2025 90.4091 51.3072C90.4091 51.3878 90.4041 51.4669 90.4031 51.5472L90.3975 51.7216C90.3972 51.7294 90.3981 51.7369 90.3981 51.7447C90.165 61.0503 82.5378 68.5809 73.135 68.5809C62.2766 68.5813 55.5297 60.2159 55.3037 51.7419ZM73.1353 73.2691C76.2472 73.2691 79.2944 72.5837 81.9019 71.4419V75.9944L76.2712 82.9447H69.9041L64.2734 75.9944V71.5888C66.9466 72.665 69.9947 73.2691 73.1353 73.2691ZM25.1612 155.312C24.4478 155.312 23.8672 154.732 23.8672 154.018V133.98H36.4666C37.18 133.98 37.7609 134.561 37.7609 135.274C37.7609 137.686 37.7609 153.012 37.7609 155.312H25.1612ZM56.0809 142.767C52.2278 142.767 49.0934 145.901 49.0934 149.754V153.012C49.0934 153.012 49.0934 153.012 49.0934 153.013C49.0934 153.806 49.2322 154.597 49.4822 155.312H42.4494C42.4494 151.279 42.4494 123.144 42.4494 119.213C42.4494 117.919 41.4003 116.869 40.1056 116.869C38.8109 116.869 37.7619 117.919 37.7619 119.213V129.437C37.3447 129.345 36.9125 129.292 36.4675 129.292H23.8672V105.191C23.8672 94.6378 32.7722 90.6641 33.3181 90.4306L50.1412 83.9088L57.0787 97.8131V140.467C57.0787 141.205 57.2012 142.004 57.4675 142.767H56.0809Z" fill="black"/>
</svg>
