<svg width="160" height="160" viewBox="0 0 160 160" fill="none" xmlns="http://www.w3.org/2000/svg">
<g clip-path="url(#clip0_34_296)">
<path d="M88.7342 70.4055H71.4233V83.366C71.4233 85.8559 73.4418 87.8744 75.9317 87.8744H84.2259C86.7158 87.8744 88.7342 85.8559 88.7342 83.366V70.4055Z" fill="#A59CA6"/>
<path d="M87.5976 85.1988H79.3035C76.8136 85.1988 74.7951 83.1804 74.7951 80.6905V79.567C74.7951 78.6018 75.5775 77.8194 76.5427 77.8194H88.734V70.4058H71.4231V83.3663C71.4231 85.8562 73.4415 87.8746 75.9315 87.8746H84.2256C86.0908 87.8746 87.691 86.7421 88.3769 85.127C88.1233 85.1712 87.8641 85.1988 87.5976 85.1988Z" fill="#8F8390"/>
<path d="M123.048 107.135L136.818 95.529C139.65 93.1419 140 88.9232 137.6 86.1064C135.2 83.2895 130.958 82.9412 128.126 85.3283L99.5055 109.452L88.7343 118.785L103.811 124.713L123.048 107.135Z" fill="#FFE0D1"/>
<path d="M93.5398 120.181L104.311 110.848L132.932 86.724C134.018 85.8087 135.314 85.3008 136.631 85.1748C134.172 83.2476 130.607 83.2376 128.126 85.3287L99.5055 109.452L88.7343 118.785L103.811 124.713L104.189 124.368L93.5398 120.181Z" fill="#FFD1C2"/>
<path d="M100.116 109.123L121.841 90.9548C124.233 88.5148 124.406 84.6346 122.135 81.9895C119.716 79.1727 115.44 78.8244 112.586 81.2115L93.2279 97.4008L78.7887 108.586L87.3951 119.517L100.116 109.123Z" fill="#FFE0D1"/>
<path d="M83.6689 110.835L98.108 99.6494L117.466 83.4601C118.792 82.351 120.43 81.837 122.04 81.8818C119.606 79.1659 115.404 78.8558 112.586 81.2116L93.2282 97.4009L78.7891 108.586L87.3954 119.517L89.2876 117.971L83.6689 110.835Z" fill="#FFD1C2"/>
<path d="M109.46 30.5911C109.46 14.3642 96.3052 1.20996 80.0786 1.20996C63.8521 1.20996 50.6975 14.3645 50.6975 30.5911C50.6975 36.8862 52.6783 42.7184 56.0491 47.5001L70.1867 69.5096V72.3716C70.1867 74.1734 71.6475 75.6342 73.4493 75.6342H86.7073C88.5092 75.6342 89.9699 74.1734 89.9699 72.3716V69.5096L104.108 47.5001C107.479 42.7184 109.46 36.8866 109.46 30.5911Z" fill="#FBE88C"/>
<path d="M68.4394 51.2492C64.915 46.0804 62.8439 39.7758 62.8439 32.9707C62.8439 17.8318 73.0863 5.16786 86.7989 1.98298C84.6397 1.47735 82.3921 1.20996 80.0786 1.20996C63.8517 1.20996 50.6975 14.3645 50.6975 30.5911C50.6975 36.8862 52.6783 42.7184 56.0491 47.5001L70.1867 69.5096V72.3716C70.1867 74.1734 71.6475 75.6342 73.4493 75.6342H81.846L68.4394 51.2492Z" fill="#FBE372"/>
<path d="M96.793 109.393L97.3291 109.453H117.824C119.388 109.453 120.899 108.898 122.09 107.889L143.836 89.4596C145.093 88.3969 146.626 87.8766 148.152 87.8766C150.049 87.8766 151.933 88.6791 153.256 90.237C155.644 93.0551 155.296 97.2745 152.478 99.66L118.153 128.753C114.608 131.756 110.257 133.653 105.642 134.208L67.311 138.819L52.4339 156.632C51.9201 157.247 51.085 157.489 50.3217 157.245L7.87443 143.668C6.56286 143.248 6.07541 141.647 6.93056 140.568L23.3151 119.888L24.5345 117.315C30.5125 104.71 43.2175 96.6758 57.167 96.6758H89.6333C91.9468 96.6758 94.0376 97.613 95.5548 99.1271C97.0689 100.644 98.0062 102.735 98.0062 105.049C98.0062 106.641 97.561 108.127 96.793 109.393Z" fill="#FFE0D1"/>
<path d="M148.152 87.8766C146.626 87.8766 145.093 88.3969 143.836 89.4596L122.09 107.889C120.899 108.898 119.388 109.453 117.824 109.453H97.329L96.793 109.393C96.9504 109.134 97.0905 108.863 97.2196 108.586H52.7561V110.194C52.7561 114.572 56.3049 118.12 60.6826 118.12H89.4048C89.4838 118.122 89.5621 118.123 89.6408 118.123C93.2699 118.123 96.735 116.574 99.1857 113.962C99.7337 113.378 100.5 113.048 101.301 113.048H119.986C121.632 113.048 123.222 112.447 124.475 111.352L147.355 91.369C148.677 90.2167 150.29 89.6524 151.896 89.6524C152.184 89.6524 152.47 89.6725 152.754 89.7082C151.479 88.4985 149.821 87.8766 148.152 87.8766Z" fill="#FFD1C2"/>
<path d="M98.0062 105.049C98.0062 106.641 97.561 108.127 96.793 109.393C95.2915 111.86 92.5517 113.487 89.4515 113.418H48.5308L48.2424 97.7917C51.1201 97.0614 54.1138 96.6758 57.167 96.6758H89.6333C91.9467 96.6758 94.0376 97.6131 95.5548 99.1271C97.0689 100.644 98.0062 102.735 98.0062 105.049Z" fill="#FFE0D1"/>
<path d="M27.9818 126.538L29.2012 123.965C35.1792 111.36 47.8842 103.326 61.8337 103.326H94.3C95.6132 103.326 96.8576 103.63 97.963 104.168C97.7576 102.208 96.8739 100.449 95.5549 99.1271C94.0376 97.6131 91.9468 96.6758 89.6334 96.6758H57.167C43.2175 96.6758 30.5125 104.71 24.5346 117.315L23.3152 119.888L6.93061 140.568C6.07546 141.647 6.56322 143.248 7.87448 143.668L13.0885 145.335L27.9818 126.538Z" fill="#FFD1C2"/>
<path d="M30.9642 104.635C27.3812 107.968 24.5035 111.895 22.4104 116.307L21.3048 118.638L3.31904 141.342C2.51279 142.359 2.68426 143.838 3.70211 144.644C4.13407 144.987 4.6491 145.152 5.16038 145.152C5.85378 145.152 6.5406 144.847 7.00485 144.261L25.1568 121.348C25.2674 121.208 25.3615 121.056 25.438 120.896L26.6589 118.322C28.4956 114.45 31.0215 111.003 34.1669 108.078C35.1174 107.193 35.1713 105.706 34.287 104.755C33.4027 103.805 31.9152 103.75 30.9642 104.635Z" fill="black"/>
<path d="M155.051 88.7177C151.829 84.9159 146.115 84.4448 142.315 87.6663L141.099 88.6964C140.815 87.2265 140.163 85.8078 139.128 84.5868C135.907 80.7859 130.193 80.3145 126.392 83.5354L125.313 84.4492C125.012 83.026 124.362 81.6561 123.357 80.4697C120.135 76.6685 114.422 76.1973 110.621 79.4183L92.5499 94.7326C91.622 94.47 90.6449 94.3264 89.634 94.3264H57.1658C51.143 94.3264 45.1178 95.7709 39.742 98.5037C38.5847 99.0921 38.1233 100.507 38.7117 101.665C39.3 102.822 40.7154 103.284 41.8727 102.695C46.592 100.296 51.88 99.0285 57.1658 99.0285H89.6343C92.9536 99.0285 95.6542 101.729 95.6542 105.048C95.6542 106.682 95.011 108.211 93.8433 109.353C92.6762 110.495 91.1433 111.094 89.5029 111.067C89.4857 111.067 89.4685 111.066 89.4509 111.066H68.4956C67.1969 111.066 66.1446 112.119 66.1446 113.417C66.1446 114.716 67.1969 115.769 68.4956 115.769H89.4265C89.4989 115.77 89.5713 115.771 89.6437 115.771C92.4596 115.771 95.1103 114.691 97.131 112.715C97.4272 112.425 97.7024 112.12 97.9601 111.803H117.825C119.941 111.803 121.995 111.05 123.61 109.682L145.355 91.2534C147.178 89.7083 149.918 89.9346 151.464 91.7575C153.009 93.5809 152.782 96.3216 150.959 97.8667L116.632 126.958C113.428 129.673 109.531 131.373 105.362 131.875L101.126 132.385C99.8375 132.54 98.9181 133.71 99.0732 135C99.2168 136.194 100.232 137.07 101.405 137.07C101.499 137.07 101.593 137.064 101.689 137.053L105.924 136.543C111.01 135.932 115.764 133.858 119.672 130.545L154 101.454C157.8 98.2326 158.272 92.5189 155.051 88.7177ZM113.661 83.0053C115.484 81.4599 118.225 81.6866 119.77 83.5094C121.194 85.1899 121.139 87.6372 119.655 89.2444L100.341 105.612C100.351 105.425 100.356 105.237 100.356 105.048C100.356 101.948 99.0319 99.1517 96.9206 97.1921L113.661 83.0053ZM105.857 107.101L129.432 87.1225C131.256 85.5771 133.996 85.8037 135.541 87.6265C137.086 89.45 136.86 92.1907 135.037 93.7358L120.57 106.095C119.804 106.744 118.829 107.101 117.825 107.101H105.857Z" fill="black"/>
<path d="M91.1386 133.586L67.0304 136.486C66.4358 136.558 65.8906 136.854 65.5069 137.313L49.7791 156.142C48.9468 157.138 49.0797 158.621 50.0763 159.453C50.5158 159.82 51.0502 160 51.5822 160C52.2549 160 52.9226 159.713 53.3878 159.156L68.5178 141.043L91.7004 138.254C92.9894 138.099 93.9091 136.929 93.7539 135.639C93.5988 134.35 92.4235 133.432 91.1386 133.586Z" fill="black"/>
<path d="M72.4698 67.274C72.4698 67.274 58.7303 45.8854 58.7106 45.8579C56.3849 42.5592 54.8404 38.7091 54.2439 34.7243C54.052 33.44 52.8536 32.5538 51.5709 32.7472C50.2866 32.939 49.4017 34.1362 49.5938 35.4202C50.2954 40.1091 52.1082 44.6391 54.8379 48.5246L68.1407 69.2344V72.6632C68.1407 73.656 68.4909 74.5682 69.0727 75.2848V83.3658C69.0727 87.1478 72.1497 90.2252 75.9321 90.2252H84.2263C88.0083 90.2252 91.0857 87.1481 91.0857 83.3658V75.2848C91.6675 74.5682 92.0176 73.656 92.0176 72.6632V69.2344L105.32 48.5246C108.975 43.3222 110.907 37.2026 110.907 30.824C110.907 20.6327 105.877 11.1117 97.4526 5.35442C88.8462 -0.526629 78.0653 -1.61971 67.8755 2.35481C60.4939 5.23405 54.5912 11.0976 51.6813 18.4422C50.8838 20.455 50.2738 22.5199 49.8681 24.5794C49.617 25.8533 50.4465 27.0897 51.7201 27.3407C52.9969 27.5928 54.2304 26.7624 54.4815 25.4887C54.832 23.7092 55.3608 21.9211 56.0529 20.1741C58.4833 14.0401 63.4155 9.1418 69.5846 6.73558C78.3057 3.3341 87.4964 4.2463 94.7997 9.23678C101.941 14.1172 106.204 22.1873 106.204 30.8244C106.204 36.2449 104.559 41.4432 101.447 45.8579C101.427 45.8854 87.6876 67.274 87.6876 67.274C87.4444 67.6533 87.3149 68.094 87.3149 68.5448V72.13H86.7406L88.0798 49.4026H90.3211C93.9273 49.4026 96.8608 46.4691 96.8608 42.8629V42.6031C96.8608 38.9969 93.9273 36.0634 90.3211 36.0634C86.8638 36.0634 83.9959 38.7671 83.7927 42.2188L83.6466 44.7008H76.533L76.3869 42.2188C76.1838 38.7671 73.3159 36.0634 69.8583 36.0634C66.2521 36.0634 63.3186 38.9969 63.3186 42.6031V42.8629C63.3186 46.4691 66.2521 49.4026 69.8583 49.4026H72.0999L73.4387 72.13H72.8422V68.5448C72.8425 68.094 72.7131 67.6533 72.4698 67.274ZM88.487 42.4949C88.544 41.5247 89.3496 40.7649 90.3214 40.7649C91.3346 40.7649 92.159 41.5893 92.159 42.6025V42.8623C92.159 43.8755 91.3346 44.6999 90.3214 44.6999H88.3569L88.487 42.4949ZM69.8583 44.7002C68.8451 44.7002 68.0207 43.8758 68.0207 42.8626V42.6028C68.0207 41.5896 68.8451 40.7652 69.8583 40.7652C70.83 40.7652 71.636 41.5251 71.693 42.4952L71.8231 44.7005H69.8583V44.7002ZM86.3829 83.3661C86.3829 84.5557 85.4153 85.5234 84.2256 85.5234H75.9315C74.7418 85.5234 73.7742 84.5557 73.7742 83.3661V76.8317H86.3829V83.3661ZM76.8101 49.4023H83.3695L82.0304 72.1297H78.1496L76.8101 49.4023Z" fill="black"/>
<path d="M120.797 33.3772C120.797 34.6759 121.85 35.7282 123.149 35.7282H128.691C129.989 35.7282 131.042 34.6759 131.042 33.3772C131.042 32.0784 129.989 31.0261 128.691 31.0261H123.149C121.85 31.0261 120.797 32.0788 120.797 33.3772Z" fill="black"/>
<path d="M119.43 20.9467C119.701 20.9467 119.977 20.8994 120.246 20.7994L125.443 18.8731C126.66 18.422 127.281 17.0691 126.83 15.8516C126.379 14.634 125.026 14.0127 123.809 14.4641L118.612 16.3904C117.395 16.8415 116.774 18.1945 117.225 19.412C117.577 20.3602 118.475 20.9467 119.43 20.9467Z" fill="black"/>
<path d="M118.613 50.3643L123.809 52.2903C124.078 52.39 124.354 52.4376 124.626 52.4376C125.581 52.4376 126.479 51.8511 126.83 50.9028C127.281 49.6853 126.66 48.3327 125.443 47.8813L120.246 45.9553C119.029 45.5045 117.676 46.1255 117.225 47.3427C116.774 48.5603 117.395 49.9129 118.613 50.3643Z" fill="black"/>
<path d="M31.467 35.7282H37.0092C38.3079 35.7282 39.3602 34.6759 39.3602 33.3772C39.3602 32.0784 38.3079 31.0261 37.0092 31.0261H31.467C30.1683 31.0261 29.116 32.0784 29.116 33.3772C29.116 34.6759 30.1683 35.7282 31.467 35.7282Z" fill="black"/>
<path d="M34.7142 18.8735L39.9107 20.7998C40.1799 20.8995 40.4558 20.9471 40.7273 20.9471C41.6824 20.9471 42.5805 20.3606 42.9319 19.4123C43.383 18.1948 42.762 16.8422 41.5445 16.3908L36.348 14.4645C35.1311 14.014 33.7782 14.6344 33.3265 15.8519C32.8757 17.0694 33.497 18.4221 34.7142 18.8735Z" fill="black"/>
<path d="M42.9322 47.3428C42.4811 46.1253 41.1285 45.504 39.9107 45.9554L34.7142 47.8813C33.4967 48.3324 32.8757 49.6854 33.3268 50.9029C33.6782 51.8508 34.576 52.4376 35.5315 52.4376C35.8026 52.4376 36.0788 52.3903 36.3481 52.2903L41.5445 50.3643C42.7623 49.9129 43.3836 48.5603 42.9322 47.3428Z" fill="black"/>
</g>
<defs>
<clipPath id="clip0_34_296">
<rect width="160" height="160" fill="white"/>
</clipPath>
</defs>
</svg>
