<svg width="160" height="160" viewBox="0 0 160 160" fill="none" xmlns="http://www.w3.org/2000/svg">
<path d="M93.3643 9.27002H32.6574C27.1103 9.27002 22.6135 13.7668 22.6135 19.3139V140.686C22.6135 146.233 27.1103 150.73 32.6574 150.73H93.3643C98.9113 150.73 103.408 146.233 103.408 140.686V19.3139C103.408 13.7668 98.9113 9.27002 93.3643 9.27002Z" fill="#CDD9F9"/>
<path d="M103.408 46.1399H53.5681C52.8891 46.1399 52.238 46.4096 51.7579 46.8897C51.2778 47.3698 51.0081 48.0209 51.0081 48.6999V113.248C51.008 114.169 51.1894 115.081 51.5418 115.932C51.8942 116.783 52.4108 117.556 53.062 118.207C53.7132 118.858 54.4863 119.375 55.3371 119.727C56.188 120.08 57.0999 120.261 58.0209 120.261H103.408V46.1399Z" fill="#91A0E2"/>
<path d="M76.905 20.3017H49.1165C46.5338 20.3017 43.9851 19.7135 41.6636 18.5817C39.3421 17.4499 37.3088 15.8042 35.7181 13.7695L32.2007 9.27002H93.8212L90.3041 13.7695C88.7133 15.8043 86.68 17.4501 84.3583 18.5819C82.0367 19.7137 79.4878 20.3018 76.905 20.3017Z" fill="#A3A3A3"/>
<path d="M61.5623 41.02H142.067V110.02H61.5623V41.02Z" fill="#FFEFE9"/>
<path d="M61.5623 41.02H142.067V55.0363H61.5623V41.02Z" fill="#999898"/>
<path d="M97.8796 89.2338V64.0581L112.155 76.5573L97.8796 89.2338Z" fill="#89DD7A"/>
<path d="M35.0572 153.29H95.7641C99.1057 153.286 102.309 151.957 104.672 149.594C107.035 147.231 108.364 144.028 108.368 140.686V123.093C108.254 119.701 103.355 119.713 103.248 123.093V140.686C103.246 142.67 102.457 144.573 101.054 145.976C99.6505 147.379 97.7483 148.168 95.7641 148.17H35.0572C33.0731 148.168 31.1709 147.379 29.7679 145.976C28.3649 144.573 27.5757 142.67 27.5734 140.686V19.314C27.5757 17.6032 28.1633 15.9446 29.2384 14.6138C30.3136 13.283 31.8116 12.36 33.4838 11.9982C38.1635 18.5771 43.0662 22.7448 51.5167 22.8619H79.3049C87.7548 22.7451 92.6601 18.5755 97.3375 11.9982C99.0097 12.36 100.508 13.283 101.583 14.6138C102.658 15.9446 103.246 17.6032 103.248 19.314V38.46H63.9622C63.2832 38.46 62.6321 38.7297 62.152 39.2098C61.6719 39.6899 61.4022 40.341 61.4022 41.02V110.02C61.4022 110.699 61.6719 111.35 62.152 111.83C62.6321 112.311 63.2832 112.58 63.9622 112.58H144.467C145.145 112.58 145.797 112.311 146.277 111.83C146.757 111.35 147.027 110.699 147.027 110.02C147.037 99.6081 147.019 50.324 147.027 41.02C147.027 40.341 146.757 39.6899 146.277 39.2098C145.797 38.7297 145.145 38.46 144.467 38.46H108.368V19.314C108.36 15.9738 107.029 12.7727 104.667 10.4108C102.305 8.04893 99.1043 6.7184 95.7641 6.71021H34.6006C34.47 6.71085 34.3397 6.72154 34.2108 6.74221C31.0236 6.96014 28.0377 8.37886 25.8556 10.7121C23.6735 13.0454 22.4577 16.1194 22.4534 19.314V140.686C22.4572 144.028 23.7863 147.231 26.1492 149.594C28.512 151.957 31.7156 153.286 35.0572 153.29ZM66.5222 107.46V57.5963H141.907V107.46H66.5222ZM141.907 52.4763H66.5222V43.5803H141.907V52.4763ZM90.9699 11.8302C89.6291 13.6653 87.8735 15.1574 85.8462 16.1848C83.819 17.2121 81.5776 17.7457 79.3049 17.7419H51.5164C49.2437 17.7457 47.0023 17.2121 44.9751 16.1848C42.9479 15.1574 41.1922 13.6653 39.8515 11.8302H90.9699Z" fill="#2F2F2F"/>
<path d="M99.2319 91.5693C99.682 91.7715 100.181 91.8393 100.669 91.7646C101.156 91.6899 101.612 91.4758 101.981 91.1482L116.256 78.4717C116.528 78.2305 116.745 77.9343 116.893 77.6027C117.041 77.2712 117.118 76.9119 117.116 76.5487C117.115 76.1855 117.036 75.8267 116.886 75.4962C116.735 75.1657 116.516 74.871 116.243 74.6317L101.968 62.1325C101.598 61.8085 101.142 61.5979 100.655 61.526C100.169 61.4541 99.6717 61.524 99.2237 61.7271C98.7758 61.9303 98.3958 62.2583 98.1294 62.6717C97.8629 63.0852 97.7212 63.5667 97.7212 64.0586V89.2342C97.7212 89.7277 97.8638 90.2105 98.1318 90.6248C98.3998 91.0391 98.7819 91.3671 99.2319 91.5693ZM102.841 69.7024L110.686 76.5709L102.841 83.537V69.7024Z" fill="#2F2F2F"/>
<path d="M60.4933 137.376C57.1122 137.479 57.1081 142.391 60.4933 142.496H70.3276C73.7087 142.393 73.7132 137.481 70.3276 137.376H60.4933Z" fill="#2F2F2F"/>
<path d="M131.085 96.596H90.3651V95.2609C90.3651 94.582 90.0954 93.9308 89.6153 93.4507C89.1352 92.9706 88.484 92.7009 87.8051 92.7009C87.1261 92.7009 86.475 92.9706 85.9949 93.4507C85.5148 93.9308 85.2451 94.582 85.2451 95.2609V96.596H80.2285C79.5495 96.596 78.8984 96.8657 78.4183 97.3458C77.9382 97.8259 77.6685 98.477 77.6685 99.156C77.6685 99.8349 77.9382 100.486 78.4183 100.966C78.8984 101.446 79.5495 101.716 80.2285 101.716H85.2451V103.051C85.2451 103.73 85.5148 104.381 85.9949 104.862C86.475 105.342 87.1261 105.611 87.8051 105.611C88.484 105.611 89.1352 105.342 89.6153 104.862C90.0954 104.381 90.3651 103.73 90.3651 103.051V101.716H131.085C134.466 101.613 134.471 96.7006 131.085 96.596Z" fill="#2F2F2F"/>
<path d="M72.6521 50.4736C75.8841 50.3738 75.8841 45.682 72.6521 45.5828C69.4195 45.6826 69.4205 50.3741 72.6521 50.4736Z" fill="#2F2F2F"/>
<path d="M80.2284 50.4736C83.4604 50.3738 83.4604 45.682 80.2284 45.5828C76.9961 45.6826 76.9971 50.3741 80.2284 50.4736Z" fill="#2F2F2F"/>
<path d="M87.8051 50.4736C91.0371 50.3738 91.0371 45.682 87.8051 45.5828C84.5728 45.6826 84.5734 50.3741 87.8051 50.4736Z" fill="#2F2F2F"/>
</svg>
